
Format : MPEG-4
Format profile : Base Media / Version 2
Codec ID : mp42
File size : 410 MiB
Duration : 1h 39mn
Overall bit rate : 579 Kbps
Encoded date : UTC 2010-10-28 21:23:27
Tagged date : UTC 2010-10-28 21:24:48
Writing application : mp4creator 1.6.1d

Video
ID : 1
Format : AVC
Format/Info : Advanced Video Codec
Format profile : Baseline@L1.3
Format settings, CABAC : No
Format settings, ReFrames : 1 frame
Codec ID : avc1
Codec ID/Info : Advanced Video Coding
Duration : 1h 39mn
Bit rate mode : Variable
Bit rate : 512 Kbps
Width : 480 pixels
Height : 272 pixels
Display aspect ratio : 16:9
Original display aspect ratio : 16:9
Frame rate mode : Constant
Frame rate : 24.000 fps
Resolution : 24 bits
Colorimetry : 4:2:0
Scan type : Progressive
Bits/(Pixel*Frame) : 0.163
Stream size : 363 MiB (89%)
Encoded date : UTC 2010-10-28 21:23:27
Tagged date : UTC 2010-10-28 21:24:47

Audio
ID : 2
Format : AAC
Format/Info : Advanced Audio Codec
Format version : Version 4
Format profile : LC
Format settings, SBR : Yes
Format settings, PS : No
Codec ID : 40
Duration : 1h 39mn
Bit rate mode : Variable
Bit rate : 66.15 Kbps
Maximum bit rate : 112 Kbps
Channel(s) : 2 channels
Channel positions : L R
Sampling rate : 48.0 KHz
Resolution : 16 bits
Stream size : 46.0 MiB (11%)
Encoded date : UTC 2010-10-28 21:24:47
Tagged date : UTC 2010-10-28 21:24:48

The story follows Kevin Carson (Bow Wow), a young man living in the projects, wins $370 million in a nationwide lottery. Unfortunately, his opportunistic neighbors discover he has the winning ticket in his possession. With help from his best friends Benny & Stacie (Brandon T. Jackson and Naturi Naughton) and an elderly confidante Mr. Washington (Ice Cube), Kevin must survive the neighborhood bully Lorenzo (Gbenga Akinnagbe) & their greedy and sometimes even threatening actions over the 4th of July weekend before he can claim his prize.
 
http://www.imdb.com/title/tt0979434/

screens
 
http://img828.imageshack.us/img828/2162/lotteryticketh264vicemp.jpg 
http://img301.imageshack.us/img301/2162/lotteryticketh264vicemp.jpg 
http://img714.imageshack.us/img714/2162/lotteryticketh264vicemp.jpg 
http://img175.imageshack.us/img175/2162/lotteryticketh264vicemp.jpg